<?xml version="1.0" standalone="no"?>
<!DOCTYPE svg PUBLIC "-//W3C//DTD SVG 20010904//EN"
 "http://www.w3.org/TR/2001/REC-SVG-20010904/DTD/svg10.dtd">
<svg version="1.0" xmlns="http://www.w3.org/2000/svg"
 width="567.000000pt" height="441.000000pt" viewBox="0 0 567.000000 441.000000"
 preserveAspectRatio="xMidYMid meet">

<g transform="translate(0.000000,441.000000) scale(0.100000,-0.100000)"
fill="#000000" stroke="none">
<path d="M1905 3400 c-252 -59 -461 -236 -567 -482 -56 -131 -70 -207 -71
-383 0 -135 3 -162 30 -265 69 -264 200 -502 421 -765 94 -111 329 -355 437
-454 263 -240 645 -561 666 -561 31 0 405 315 674 566 596 558 868 993 892
1429 23 433 -207 782 -599 907 -93 29 -292 36 -390 13 -176 -41 -366 -168
-497 -331 -35 -44 -67 -80 -71 -82 -5 -2 -34 31 -65 72 -89 119 -206 216 -343
285 -133 67 -353 89 -517 51z m1363 -79 c-65 -32 -148 -80 -185 -107 -60 -42
-65 -43 -38 -15 54 60 183 139 269 166 81 26 69 14 -46 -44z m-891 28 c51 -19
223 -124 223 -136 0 -2 -33 14 -72 36 -40 21 -111 57 -158 80 -91 43 -87 54 7
20z m1403 -219 c23 -23 25 -55 8 -97 -6 -15 -10 -34 -9 -41 1 -8 -5 -24 -13
-37 -13 -20 -13 -24 -1 -29 22 -8 18 -33 -7 -50 -28 -20 -38 -20 -38 -1 0 17
-9 19 -28 7 -19 -13 -28 -82 -11 -83 8 -1 21 -2 29 -3 9 0 14 -9 12 -23 -3
-23 13 -40 23 -23 9 14 41 12 54 -4 14 -17 59 -9 64 13 2 9 -10 28 -27 43
l-31 26 25 27 25 27 -22 15 c-29 20 -29 37 0 60 16 13 23 28 22 53 0 32 2 35
30 35 25 1 30 6 36 31 13 64 37 71 71 20 22 -33 22 -33 38 -13 16 19 17 19 43
-13 15 -17 27 -38 27 -46 0 -8 5 -13 11 -11 6 1 14 -4 17 -12 3 -8 0 -11 -6
-7 -14 8 -52 -28 -52 -49 0 -13 4 -13 23 -3 12 7 29 18 37 25 13 10 18 8 28
-8 11 -17 10 -20 -4 -17 -9 2 -19 -3 -21 -10 -3 -8 4 -11 19 -10 20 3 23 -1
23 -32 1 -28 5 -36 23 -38 25 -4 45 -35 39 -60 -4 -14 -6 -13 -12 6 -5 14 -25
31 -51 43 -43 19 -53 32 -35 43 5 4 12 0 14 -6 4 -8 6 -9 6 -2 1 6 -6 17 -14
24 -23 19 -31 -15 -14 -64 12 -35 20 -42 63 -57 26 -10 51 -21 55 -24 3 -4 7
-28 7 -53 1 -26 5 -56 10 -66 5 -13 3 -21 -4 -24 -16 -5 -16 -39 0 -44 16 -6
1 -27 -28 -38 -28 -11 -30 -22 -7 -41 15 -12 16 -12 10 3 -4 12 -2 15 9 11 22
-8 7 -99 -25 -149 -31 -48 -107 -104 -142 -104 -14 0 -29 -4 -35 -9 -5 -6 -36
0 -79 15 -38 14 -80 28 -91 31 -12 3 -37 20 -55 39 -40 41 -49 42 -49 5 0 -39
43 -85 76 -78 19 3 24 0 24 -17 0 -12 7 -31 15 -43 13 -18 12 -22 -5 -38 -18
-17 -19 -19 -3 -45 35 -60 -21 -81 -90 -34 -21 14 -43 24 -50 21 -7 -2 12 -16
41 -31 52 -26 72 -53 72 -97 0 -12 -7 -19 -19 -19 -33 0 -50 11 -72 46 -11 19
-25 34 -30 34 -15 0 16 -52 50 -84 37 -36 44 -86 11 -86 -15 0 -22 -11 -31
-45 -6 -25 -15 -45 -19 -45 -11 0 -60 59 -60 71 0 6 -7 6 -19 0 -14 -8 -22 -7
-30 3 -7 8 -20 12 -30 9 -20 -5 -41 17 -44 46 -1 22 -12 27 -22 11 -18 -29
-55 28 -55 88 -1 33 -2 35 -14 20 -7 -10 -38 -37 -70 -62 -49 -38 -65 -45
-121 -51 -60 -6 -69 -4 -117 24 -64 36 -103 76 -112 114 -6 25 -51 56 -63 43
-11 -11 20 -85 41 -100 31 -20 45 -75 22 -91 -12 -10 -14 -18 -6 -46 14 -48
14 -49 -23 -49 -25 0 -42 9 -67 35 -19 19 -38 35 -42 35 -11 0 -10 -61 2 -96
6 -16 19 -35 30 -42 18 -11 20 -10 20 18 0 16 -8 38 -18 48 -10 10 -22 27 -25
38 -4 11 7 4 28 -18 28 -30 35 -46 35 -78 0 -28 -4 -40 -14 -40 -28 0 -47 13
-62 42 -23 44 -28 27 -8 -29 18 -51 15 -84 -12 -118 -15 -20 -16 -20 -40 8
-13 15 -24 37 -24 49 0 17 -3 18 -15 8 -24 -20 -45 -4 -45 35 0 33 -2 35 -21
25 -35 -19 -52 -5 -46 38 4 37 4 38 -24 34 -35 -5 -47 17 -30 55 9 20 9 28 0
33 -18 12 -2 74 26 98 22 19 44 86 33 98 -3 2 -21 -7 -41 -20 -42 -29 -50 -23
-49 40 1 53 -15 58 -40 13 -23 -40 -23 -53 3 -46 16 4 18 3 9 -8 -7 -8 -17
-13 -23 -12 -7 1 -12 -7 -12 -18 0 -11 -7 -25 -15 -32 -12 -9 -13 -14 -2 -25
10 -10 16 -10 33 0 11 7 25 10 31 6 5 -4 14 0 19 7 6 11 9 10 14 -3 8 -20 -68
-128 -90 -128 -8 0 -19 -8 -24 -18 -23 -43 -199 -59 -238 -23 -12 11 -23 17
-26 15 -3 -3 -19 2 -36 10 -16 9 -31 16 -33 16 -2 0 -4 -15 -5 -33 -4 -73 -36
-112 -74 -88 -16 9 -19 8 -19 -8 0 -11 -11 -33 -24 -48 l-24 -28 -30 22 -30
22 -5 -28 c-6 -28 -71 -81 -83 -68 -3 3 -8 23 -11 45 -4 31 0 46 18 71 12 17
20 34 16 37 -3 4 -11 -5 -18 -19 -10 -23 -35 -37 -66 -37 -16 0 -17 44 -2 72
6 11 26 34 45 50 19 17 32 33 30 36 -3 2 -22 -10 -42 -27 -60 -54 -117 -29
-83 36 12 22 11 27 -4 38 -9 7 -17 22 -17 34 0 11 -4 21 -10 21 -5 0 -10 5
-10 10 0 6 8 10 18 10 22 0 42 19 42 40 -1 12 -3 12 -15 -3 -18 -25 -53 -14
-61 19 -3 13 -10 21 -15 18 -15 -9 -10 -61 6 -74 12 -10 13 -15 4 -20 -8 -6
-8 -13 1 -29 16 -32 3 -61 -31 -68 -18 -3 -29 -12 -29 -22 0 -26 -25 -55 -40
-46 -10 6 -9 10 4 17 23 13 20 28 -16 65 -18 18 -27 33 -22 33 6 0 15 -5 21
-11 14 -14 43 -5 43 13 0 21 -13 35 -40 43 -24 7 -25 7 -7 -12 17 -20 17 -20
-8 -16 -19 4 -25 1 -25 -13 -1 -18 -1 -18 -15 0 -19 25 -19 37 0 30 10 -4 20
4 29 27 14 32 13 35 -7 51 -12 10 -16 18 -9 18 6 0 12 6 12 14 0 8 6 16 13 19
6 2 8 8 4 13 -4 4 -24 -9 -43 -30 -19 -21 -38 -35 -42 -31 -4 3 8 19 27 34
l33 27 -41 13 c-23 6 -46 9 -51 6 -5 -3 -8 3 -7 14 0 11 5 17 10 14 9 -5 4 16
-14 65 -5 12 -16 22 -24 22 -9 0 -13 5 -9 11 3 6 15 9 25 6 16 -4 19 1 20 31
1 21 0 42 -1 47 -25 119 -31 164 -31 249 0 55 5 123 11 150 20 88 75 192 136
256 59 62 120 107 131 96 3 -3 -8 -38 -25 -78 -82 -194 -114 -393 -92 -578 15
-115 23 -140 50 -140 24 0 25 4 4 36 -23 34 -6 74 31 74 22 0 25 4 25 35 0 32
2 35 30 35 23 0 30 5 30 19 0 10 9 29 19 42 18 21 22 23 41 11 19 -12 25 -11
44 7 28 26 34 26 54 1 17 -19 17 -19 65 5 54 28 77 31 95 13 26 -26 10 -64
-22 -52 -24 9 -19 26 5 19 16 -5 20 -3 17 6 -3 8 -18 14 -34 14 -28 0 -29 -2
-25 -40 1 -21 10 -45 20 -52 15 -11 15 -14 -1 -43 -19 -33 -17 -35 14 -19 27
14 65 4 73 -21 4 -12 15 -20 28 -19 20 0 21 1 3 8 -16 6 -17 9 -4 13 8 4 21 3
28 -2 13 -8 10 -21 -11 -51 -7 -9 -9 -27 -5 -44 l7 -28 30 29 c16 15 38 43 49
61 l19 33 -40 0 c-29 0 -47 7 -64 25 -24 24 -32 45 -17 45 4 0 19 10 33 23 20
17 26 32 27 65 2 41 1 43 -25 40 -14 -2 -29 -9 -31 -17 -3 -10 0 -12 12 -8 9
4 16 2 16 -3 0 -12 -37 -13 -44 -2 -3 5 2 19 11 31 12 18 22 22 43 17 24 -4
27 -2 23 14 -3 11 0 20 6 20 6 0 11 -6 11 -12 1 -14 25 -45 54 -68 18 -14 19
-14 7 8 -6 12 -16 22 -21 22 -6 0 -10 9 -10 20 0 24 15 27 24 4 5 -13 10 -12
37 7 32 22 32 22 48 3 15 -18 20 -19 48 -8 34 14 47 7 54 -30 2 -10 12 -23 22
-27 57 -29 55 -26 42 -61 -5 -13 -2 -18 8 -18 9 0 23 -7 31 -16 14 -13 14 -19
1 -50 l-14 -34 27 6 c15 4 29 11 31 17 9 24 44 47 71 47 30 0 30 0 14 25 -13
20 -14 34 -1 23 1 -2 13 7 26 19 19 18 21 25 12 42 -9 17 -21 21 -59 21 l-47
-1 28 -15 c29 -16 37 -30 11 -20 -8 3 -12 2 -9 -3 8 -15 -13 -24 -41 -17 -25
7 -34 41 -12 48 7 3 -6 21 -30 42 -46 42 -61 78 -42 101 25 30 105 7 85 -25
-8 -13 -55 -13 -55 0 0 6 7 10 16 10 8 0 12 5 9 10 -8 13 -45 -6 -45 -23 0 -7
7 -23 16 -35 15 -21 17 -22 39 -8 17 11 25 12 27 4 3 -7 23 5 48 28 37 35 42
45 36 68 -5 22 -11 27 -34 24 -21 -2 -28 -9 -29 -28 -1 -14 0 -19 3 -12 3 6
14 12 25 12 29 0 22 -32 -13 -59 -30 -24 -30 -24 -19 -3 10 18 9 23 -4 28 -18
7 -20 55 -3 72 16 16 63 15 76 -1 6 -7 18 -33 26 -59 14 -40 14 -50 1 -87
l-14 -41 40 -32 c51 -41 57 -67 29 -119 -17 -34 -19 -44 -8 -50 19 -12 42 -11
62 4 16 12 16 14 -3 31 -14 13 -21 31 -21 57 0 21 -4 41 -10 44 -5 3 -10 16
-10 27 0 12 -8 30 -17 40 -14 16 -15 23 -5 38 17 28 15 54 -8 83 -27 34 -26
82 2 101 24 17 58 6 58 -19 0 -20 -20 -29 -33 -16 -8 8 -8 11 2 11 7 0 10 4 6
10 -3 5 -12 7 -20 4 -25 -10 -27 -43 -6 -78 12 -18 21 -50 21 -70 0 -20 5 -36
10 -36 6 0 10 7 10 16 0 8 5 12 10 9 6 -3 10 -17 10 -31 0 -21 -4 -24 -20 -19
-20 6 -28 -9 -10 -20 6 -3 10 -16 10 -28 1 -20 2 -21 14 -4 7 9 20 17 28 17 9
0 21 13 28 30 11 27 10 31 -19 56 -35 30 -40 63 -12 88 14 13 17 24 12 44 -10
36 7 71 37 79 44 11 74 -25 56 -65 -4 -9 -6 -21 -5 -26 1 -4 -11 -6 -26 -2
-27 6 -27 6 -9 -9 11 -8 34 -15 51 -15 17 0 36 -5 42 -11 15 -15 35 23 31 59
-3 29 -37 39 -46 13 -3 -8 0 -11 7 -7 6 4 11 1 11 -8 0 -9 -9 -16 -20 -16 -25
0 -26 26 -3 52 21 24 48 23 66 -2 20 -29 11 -59 -34 -119 -31 -41 -36 -53 -24
-57 38 -15 -4 -59 -48 -51 -20 3 -18 5 10 16 31 12 38 32 10 27 -37 -7 -59
-20 -72 -46 -20 -38 -19 -47 4 -53 14 -3 18 -11 14 -25 -4 -17 0 -21 24 -24
17 -2 32 -11 38 -25 5 -13 18 -23 27 -23 12 0 18 -8 18 -21 0 -18 2 -19 15 -9
23 19 18 51 -12 83 l-28 29 31 26 c27 23 30 30 21 49 -11 25 5 53 29 53 9 0
14 11 14 29 0 36 22 56 47 43 14 -9 20 -5 30 19 12 29 13 29 38 13 27 -18 24
-20 40 31 2 8 12 15 20 15 15 0 15 -1 1 -16 -9 -8 -16 -21 -16 -27 0 -8 4 -7
12 1 19 19 33 14 15 -6 -19 -21 -22 -42 -7 -42 6 0 10 5 10 10 0 14 33 13 48
-2 7 -7 12 -22 12 -35 0 -19 5 -23 29 -23 39 0 46 -13 27 -52 -12 -24 -13 -34
-4 -45 10 -12 13 -11 22 6 6 11 15 19 21 18 5 -1 12 12 15 28 3 18 14 34 28
40 26 11 29 30 6 43 -14 8 -11 14 15 43 17 18 31 37 31 41 0 14 -43 19 -71 8
-26 -11 -28 -14 -12 -25 15 -11 15 -13 -5 -24 -29 -15 -52 -14 -58 4 -9 21 11
42 46 49 38 7 38 21 2 40 -25 13 -30 12 -51 -4 -23 -17 -23 -18 -5 -29 17 -11
16 -11 -6 -5 -67 17 -105 71 -74 105 22 24 36 24 59 -1 10 -11 14 -20 10 -20
-5 0 -6 -2 -3 -5 9 -9 38 7 49 27 9 17 7 19 -18 16 -25 -3 -28 1 -31 28 -3 33
18 64 44 64 23 0 74 -55 74 -80 0 -11 -6 -36 -14 -54 -15 -37 -7 -56 25 -56 9
0 22 -6 28 -14 6 -8 23 -16 36 -19 22 -4 23 -2 13 11 -11 13 -11 14 1 7 11 -6
13 -4 8 9 -4 10 -7 21 -7 26 0 4 -8 7 -17 6 -14 -1 -18 7 -19 35 -2 40 -19 79
-34 79 -6 0 -10 6 -10 14 0 7 -7 19 -15 26 -34 28 -9 96 32 88 23 -4 31 -48 9
-48 -19 0 -21 16 -3 23 6 3 2 6 -10 6 -13 1 -23 -3 -23 -8 0 -5 -3 -16 -6 -24
-3 -8 2 -21 10 -29 31 -32 66 -92 67 -117 1 -17 3 -20 6 -8 2 9 11 17 20 17
12 0 14 -7 10 -30 -12 -56 13 -81 31 -32 23 62 23 78 -3 90 -13 6 -31 23 -41
37 -15 23 -15 27 0 49 14 22 14 28 1 60 -25 60 15 113 65 86 11 -6 20 -19 20
-30 0 -10 3 -25 6 -34 5 -12 0 -16 -19 -16 -14 0 -28 7 -31 16 -8 22 3 33 14
14 7 -12 10 -11 16 4 6 16 -8 36 -26 36 -14 0 -29 -18 -36 -44 -4 -18 -3 -27
3 -23 6 4 27 -3 49 -13 21 -11 32 -20 24 -20 -8 0 -27 7 -42 14 -16 8 -28 10
-28 5 0 -5 12 -14 28 -20 15 -6 34 -15 43 -19 11 -6 24 -4 35 5 11 8 14 15 7
15 -15 0 -5 30 9 30 6 0 8 -7 4 -15 -7 -18 5 -20 22 -3 14 14 16 67 3 87 -10
15 -41 8 -41 -9 0 -6 4 -9 9 -5 5 3 13 0 17 -6 7 -12 -12 -29 -33 -29 -19 0
-16 50 4 72 21 23 28 23 53 -2z m-320 -344 c0 -3 -4 -8 -10 -11 -5 -3 -10 -1
-10 4 0 6 5 11 10 11 6 0 10 -2 10 -4z m-1480 -245 c0 -6 -4 -13 -10 -16 -5
-3 -10 1 -10 9 0 9 5 16 10 16 6 0 10 -4 10 -9z m-530 -371 c0 -11 -2 -20 -4
-20 -2 0 -6 9 -9 20 -3 11 -1 20 4 20 5 0 9 -9 9 -20z m1170 -159 c0 -5 -13
-11 -30 -13 -20 -3 -30 0 -30 9 0 8 12 13 30 13 17 0 30 -4 30 -9z m1151 -610
c-54 -75 -631 -631 -656 -631 -5 0 19 34 118 163 93 121 334 342 477 437 13 8
35 25 49 37 34 30 36 29 12 -6z"/>
<path d="M3940 3084 c0 -9 6 -22 14 -28 17 -12 10 -70 -6 -60 -6 4 -5 -3 1
-15 14 -25 23 -28 14 -4 -4 11 -3 14 5 9 7 -4 13 -19 13 -34 1 -18 3 -21 6 -9
3 10 0 32 -6 50 -8 21 -8 33 -1 35 15 5 12 39 -6 56 -20 21 -34 20 -34 0z"/>
<path d="M4030 3051 c-14 -27 -13 -74 3 -90 10 -11 9 -13 -6 -8 -15 6 -18 2
-15 -15 3 -23 28 -38 28 -16 0 7 7 25 14 41 8 15 11 27 5 27 -5 0 -9 -4 -9
-10 0 -5 -4 -10 -10 -10 -12 0 -13 50 -1 69 8 12 11 9 16 -12 8 -31 25 -36 25
-8 0 17 -24 51 -35 51 -3 0 -9 -9 -15 -19z"/>
<path d="M3930 3030 c0 -5 5 -10 10 -10 6 0 10 5 10 10 0 6 -4 10 -10 10 -5 0
-10 -4 -10 -10z"/>
<path d="M3872 3003 c2 -10 11 -17 20 -15 9 1 19 -2 23 -8 13 -21 23 -9 12 15
-14 30 -61 36 -55 8z"/>
<path d="M3725 2980 c-22 -15 -30 -28 -32 -55 -2 -34 -1 -35 19 -21 19 14 36
40 51 79 8 22 -1 22 -38 -3z"/>
<path d="M3614 2967 c-5 -15 1 -27 21 -45 32 -27 48 -18 43 24 -2 20 -10 30
-30 35 -22 6 -28 3 -34 -14z"/>
<path d="M3901 2953 c13 -14 64 -18 55 -4 -3 5 -19 11 -36 13 -24 4 -27 2 -19
-9z"/>
<path d="M3420 2935 c-7 -8 -9 -23 -5 -32 6 -16 8 -16 18 5 11 24 22 28 32 12
3 -5 11 -10 17 -10 6 0 3 9 -7 20 -22 24 -38 25 -55 5z"/>
<path d="M3853 2943 c-20 -8 -15 -31 10 -44 20 -11 21 -11 8 4 -18 22 -1 22
38 0 27 -16 33 -16 41 -3 12 19 2 33 -21 27 -10 -3 -26 1 -36 9 -20 15 -22 15
-40 7z"/>
<path d="M4090 2925 c-7 -8 -8 -15 -2 -15 5 0 15 7 22 15 7 8 8 15 2 15 -5 0
-15 -7 -22 -15z"/>
<path d="M3747 2913 c-4 -3 -7 -11 -7 -17 0 -6 5 -5 12 2 6 6 9 14 7 17 -3 3
-9 2 -12 -2z"/>
<path d="M4090 2890 c0 -5 -7 -10 -15 -10 -23 0 -30 -28 -11 -49 9 -9 21 -32
27 -50 11 -31 12 -31 25 -12 11 14 11 26 4 46 -5 14 -10 40 -10 56 0 16 -4 29
-10 29 -5 0 -10 -4 -10 -10z"/>
<path d="M3982 2877 c-7 -7 -7 -18 -2 -27 7 -11 11 -11 24 -1 9 8 16 20 16 27
0 18 -24 18 -38 1z"/>
<path d="M3866 2857 c-37 -30 -27 -49 22 -42 36 4 66 29 59 50 -7 20 -52 15
-81 -8z"/>
<path d="M3461 2846 c-20 -21 -20 -24 -5 -30 20 -8 19 -8 28 27 8 33 6 33 -23
3z"/>
<path d="M3341 2842 c-7 -14 -6 -25 5 -40 19 -28 35 -28 62 1 l21 22 -36 2
c-41 2 -53 10 -33 23 10 6 11 10 3 10 -7 0 -17 -8 -22 -18z"/>
<path d="M4016 2835 c-3 -9 -2 -24 4 -34 10 -20 59 -55 66 -48 6 6 -40 90 -53
94 -6 2 -13 -3 -17 -12z"/>
<path d="M3969 2801 l-24 -21 28 -25 c19 -17 40 -25 65 -25 l36 0 -31 28 c-17
15 -35 35 -40 45 -9 17 -11 17 -34 -2z"/>
<path d="M3920 2803 c-35 -14 -51 -48 -31 -68 6 -6 6 -28 2 -52 -12 -61 9 -56
47 10 20 35 21 40 7 68 -9 16 -11 29 -5 29 5 0 10 5 10 10 0 11 -7 12 -30 3z"/>
<path d="M2916 2781 c-37 -41 18 -108 82 -98 25 4 25 4 -4 6 -35 1 -87 39 -67
47 7 3 9 12 6 21 -5 13 -2 15 16 10 17 -4 21 -2 17 10 -3 8 -6 17 -6 19 0 11
-29 2 -44 -15z"/>
<path d="M4131 2761 c-9 -17 -5 -20 37 -29 l47 -10 -42 -1 c-23 0 -43 -6 -46
-13 -4 -15 50 -108 64 -108 5 0 9 5 9 10 0 6 9 30 20 53 28 57 19 97 -20 97
-16 0 -32 5 -35 10 -10 15 -23 12 -34 -9z m40 -82 l24 -20 -30 17 c-39 24 -40
24 -28 24 6 0 21 -9 34 -21z"/>
<path d="M3667 2757 c-5 -14 8 -45 17 -37 2 3 6 14 8 24 4 22 -17 33 -25 13z"/>
<path d="M3623 2725 c1 -16 -2 -43 -6 -60 -6 -22 -5 -26 3 -15 5 8 10 24 10
35 0 14 3 16 11 8 8 -8 8 -17 -1 -33 -6 -12 -9 -34 -6 -48 6 -24 5 -25 -7 -10
-12 15 -15 11 -32 -35 -10 -29 -20 -58 -23 -64 -3 -9 10 -13 43 -13 45 0 47 1
33 18 -10 11 -12 25 -7 42 l7 25 1 -25 c1 -26 17 -50 33 -50 13 0 9 43 -7 70
-17 29 -18 40 -6 40 5 0 12 -15 16 -32 l7 -33 14 34 c21 48 28 32 8 -18 -9
-23 -14 -44 -11 -47 7 -7 60 20 75 38 14 17 -10 46 -82 103 -26 21 -54 52 -62
69 l-13 31 2 -30z"/>
<path d="M3425 2720 c-3 -5 1 -10 9 -10 9 0 16 5 16 10 0 6 -4 10 -9 10 -6 0
-13 -4 -16 -10z"/>
<path d="M3698 2718 c-5 -12 -13 -16 -25 -11 -15 5 -14 2 4 -18 26 -27 36 -22
31 18 -2 22 -5 24 -10 11z"/>
<path d="M3739 2704 c-5 -15 -8 -28 -7 -28 2 -1 16 11 33 26 29 27 29 28 7 28
-15 0 -26 -9 -33 -26z"/>
<path d="M3555 2710 c-8 -13 3 -30 21 -30 18 0 18 14 0 29 -10 8 -16 9 -21 1z"/>
<path d="M3822 2708 c6 -18 28 -21 28 -4 0 9 -7 16 -16 16 -9 0 -14 -5 -12
-12z"/>
<path d="M3950 2680 c-11 -21 -20 -41 -20 -44 0 -9 34 6 53 22 11 10 17 11 17
3 0 -6 -7 -14 -15 -17 -21 -8 -19 -24 3 -24 27 0 52 -32 52 -67 0 -28 23 -53
33 -35 15 27 22 87 18 152 -2 24 -3 24 -36 -15 -19 -22 -35 -35 -35 -30 0 6
13 26 30 45 16 19 29 38 30 43 0 4 -25 7 -55 7 -54 0 -55 -1 -75 -40z"/>
<path d="M2887 2683 c-13 -12 -7 -41 12 -64 l18 -23 17 33 c17 31 17 33 -1 47
-20 15 -36 18 -46 7z"/>
<path d="M3210 2670 c0 -8 3 -26 7 -39 5 -21 7 -20 19 15 8 22 14 40 14 41 0
1 -9 1 -20 0 -11 -1 -20 -8 -20 -17z"/>
<path d="M3797 2683 c-4 -3 -7 -11 -7 -17 0 -6 5 -5 12 2 6 6 9 14 7 17 -3 3
-9 2 -12 -2z"/>
<path d="M3853 2675 c-7 -7 -17 -15 -24 -17 -7 -2 -10 -9 -8 -16 3 -7 12 -5
28 7 13 10 22 23 20 29 -3 6 -8 5 -16 -3z"/>
<path d="M3266 2657 c3 -14 1 -34 -6 -44 -10 -15 -10 -13 -5 12 4 25 3 27 -6
12 -7 -12 -7 -27 -1 -45 l10 -27 11 28 c14 35 14 74 1 82 -7 4 -9 -2 -4 -18z"/>
<path d="M4109 2655 c0 -16 -2 -38 -4 -47 -2 -14 4 -18 26 -18 37 0 38 23 4
65 l-25 30 -1 -30z"/>
<path d="M2955 2638 c-7 -18 -12 -35 -9 -37 6 -7 64 21 64 32 0 5 8 16 18 23
15 12 13 13 -21 14 -33 0 -40 -4 -52 -32z"/>
<path d="M3314 2662 c-20 -13 -35 -83 -20 -97 10 -10 17 -6 35 20 31 47 21
101 -15 77z m14 -37 c0 -13 -4 -22 -8 -20 -5 3 -11 -1 -13 -7 -3 -7 -6 -4 -6
8 -1 16 15 44 25 44 1 0 2 -11 2 -25z"/>
<path d="M3146 2644 c-12 -32 27 -84 63 -84 12 0 4 58 -11 76 -14 19 -46 23
-52 8z m52 -49 c3 -25 2 -27 -12 -16 -19 16 -22 55 -3 49 6 -3 14 -17 15 -33z"/>
<path d="M3550 2653 c8 -4 20 -13 27 -22 13 -19 28 -9 20 14 -4 9 -18 15 -34
14 -17 0 -22 -3 -13 -6z"/>
<path d="M2697 2622 c-16 -17 -15 -20 6 -40 l24 -22 11 25 c20 42 15 61 -7 34
l-20 -24 6 23 c7 27 1 28 -20 4z"/>
<path d="M4217 2615 c-4 -8 -2 -17 3 -20 6 -4 10 3 10 14 0 25 -6 27 -13 6z"/>
<path d="M3775 2611 c-3 -2 7 -17 22 -33 37 -39 82 -38 124 3 l31 31 -47 -5
c-25 -3 -54 -12 -64 -21 -10 -9 -22 -16 -27 -16 -5 0 -1 5 9 11 9 5 17 14 17
18 0 10 -57 20 -65 12z"/>
<path d="M2638 2592 c-16 -2 -28 -7 -28 -12 0 -15 39 -31 67 -28 25 3 25 3 7
23 -13 14 -28 20 -46 17z"/>
<path d="M3503 2584 c-3 -8 -2 -18 2 -22 4 -4 10 -2 12 5 2 7 10 10 17 7 8 -3
16 1 18 8 4 8 -3 14 -19 14 -13 1 -27 -5 -30 -12z"/>
<path d="M3105 2580 c-12 -19 6 -48 35 -59 38 -13 39 1 3 17 l-28 12 28 -6
c28 -5 28 -4 11 21 -17 26 -38 32 -49 15z"/>
<path d="M3340 2570 c-21 -21 -27 -50 -10 -50 6 0 27 7 46 15 26 11 34 19 30
31 -3 8 -6 18 -6 20 0 12 -43 1 -60 -16z"/>
<path d="M4007 2572 c6 -26 -24 -43 -39 -21 -7 11 -8 9 -6 -6 5 -31 52 -27 56
4 2 13 -1 28 -7 34 -7 7 -8 3 -4 -11z"/>
<path d="M4175 2526 c0 -38 3 -52 12 -49 8 3 11 14 7 29 -4 17 -2 24 9 24 8 0
20 6 26 13 8 11 5 16 -15 25 -38 18 -39 16 -39 -42z"/>
<path d="M2337 2552 c-10 -10 -17 -28 -17 -40 0 -25 30 -92 42 -92 13 0 35 54
30 74 -3 16 -8 12 -22 -19 -16 -35 -18 -36 -24 -17 -4 12 -4 32 -1 43 5 15 4
19 -4 15 -6 -4 -11 -2 -11 5 0 7 10 9 25 7 28 -6 34 12 12 31 -11 8 -18 7 -30
-7z"/>
<path d="M4134 2552 c10 -31 -2 -62 -25 -62 -14 0 -19 -7 -19 -25 0 -14 -5
-25 -11 -25 -5 0 -7 -6 -3 -12 6 -10 3 -9 -9 0 -8 8 -17 28 -19 45 -3 31 -5
32 -43 29 -22 -2 -41 -5 -43 -7 -1 -1 10 -21 24 -44 31 -46 62 -53 115 -25 50
25 75 108 43 135 -15 12 -16 11 -10 -9z"/>
<path d="M2421 2542 c-18 -14 -19 -22 -12 -47 5 -16 10 -24 10 -17 1 6 8 12
17 12 8 0 12 5 9 10 -4 6 -11 8 -16 5 -5 -4 -9 -2 -9 4 0 17 22 24 31 10 6
-11 9 -8 9 8 0 30 -14 36 -39 15z"/>
<path d="M3932 2540 c0 -14 2 -19 5 -12 2 6 2 18 0 25 -3 6 -5 1 -5 -13z"/>
<path d="M4096 2544 c-10 -27 -7 -36 9 -20 8 8 15 19 15 25 0 17 -17 13 -24
-5z"/>
<path d="M3180 2535 c0 -21 27 -30 45 -15 19 16 10 30 -21 30 -15 0 -24 -6
-24 -15z"/>
<path d="M3755 2517 c-36 -32 -38 -36 -20 -42 55 -18 58 -24 10 -19 -27 2 -44
2 -37 -2 6 -3 12 -11 12 -17 1 -16 35 -57 48 -57 5 0 13 8 16 18 4 9 13 29 21
43 12 22 13 33 2 68 l-12 43 -40 -35z"/>
<path d="M3466 2533 c-3 -3 -3 -10 0 -14 7 -12 34 -11 34 0 0 11 -26 22 -34
14z"/>
<path d="M3870 2530 c0 -5 4 -10 10 -10 10 0 33 -39 45 -79 7 -22 5 -23 -24
-19 -26 4 -31 1 -31 -16 0 -28 -11 -43 -33 -47 -16 -3 -14 -8 14 -34 22 -21
30 -24 26 -12 -8 23 9 57 28 57 7 0 25 4 40 10 25 9 25 11 9 35 -12 19 -14 28
-5 39 9 10 3 21 -29 50 -42 38 -50 42 -50 26z"/>
<path d="M2237 2509 c-7 -27 30 -79 55 -79 24 0 23 27 -2 68 -23 37 -45 42
-53 11z m52 -39 c3 -25 3 -25 -18 -6 -26 23 -27 39 -3 34 9 -2 19 -14 21 -28z"/>
<path d="M3267 2516 c-12 -10 -15 -16 -7 -21 16 -10 40 2 40 20 0 18 -9 19
-33 1z"/>
<path d="M2620 2510 c0 -5 4 -10 9 -10 6 0 13 5 16 10 3 6 -1 10 -9 10 -9 0
-16 -4 -16 -10z"/>
<path d="M3352 2506 l-24 -13 25 -29 c30 -35 87 -70 87 -53 0 6 -8 33 -17 60
-19 52 -31 58 -71 35z"/>
<path d="M3846 2512 c-3 -5 4 -13 17 -16 21 -6 21 -7 4 -20 -14 -11 -15 -15
-3 -19 23 -9 29 25 8 46 -12 11 -22 15 -26 9z"/>
<path d="M1884 2498 c-24 -32 -35 -86 -23 -112 16 -33 29 -33 29 0 0 20 -4 25
-16 20 -12 -5 -14 -1 -8 17 7 25 35 59 42 52 3 -2 -1 -13 -9 -22 -13 -17 -13
-17 5 -3 18 14 19 13 13 -10 -19 -68 -20 -73 -10 -67 15 9 23 71 14 103 -8 32
-24 41 -37 22z"/>
<path d="M3070 2490 c-10 -19 5 -40 30 -40 19 0 84 39 77 46 -3 3 -26 7 -51 8
-36 3 -49 0 -56 -14z"/>
<path d="M1968 2488 c-9 -7 -18 -30 -20 -50 l-4 -37 31 17 c22 14 30 25 30 47
0 32 -14 41 -37 23z m12 -44 c-18 -21 -24 -10 -8 15 7 12 14 17 16 11 2 -6 -2
-17 -8 -26z"/>
<path d="M1802 2478 c-15 -15 -16 -55 -2 -63 6 -3 10 -22 10 -41 0 -34 12 -45
26 -22 4 6 2 14 -4 16 -7 2 -12 11 -12 21 0 9 -5 22 -11 28 -13 13 -4 33 16
33 8 0 12 -8 9 -22 -4 -21 -4 -22 5 -3 15 30 13 43 -7 54 -13 7 -23 6 -30 -1z"/>
<path d="M2477 2483 c-13 -13 -7 -23 16 -24 l22 0 -21 -9 c-23 -9 -41 -30 -27
-30 18 0 66 47 59 58 -8 13 -39 16 -49 5z"/>
<path d="M2887 2484 c-11 -11 -8 -44 3 -44 6 0 10 -5 10 -11 0 -6 -9 -9 -20
-6 -25 6 -25 -4 -1 -34 l19 -23 7 53 c7 49 -2 81 -18 65z"/>
<path d="M3447 2484 c-9 -10 2 -24 19 -24 8 0 14 7 14 15 0 15 -21 21 -33 9z"/>
<path d="M2764 2466 c-4 -11 -1 -21 7 -27 17 -11 26 18 10 34 -7 7 -12 5 -17
-7z"/>
<path d="M3210 2446 c0 -18 7 -39 15 -46 12 -10 15 -10 15 1 0 8 6 3 13 -11 7
-14 23 -26 35 -28 23 -3 23 -3 8 27 -9 16 -16 38 -16 47 0 20 -28 43 -52 44
-14 0 -18 -8 -18 -34z"/>
<path d="M3297 2473 c-22 -22 15 -86 62 -106 26 -11 26 -11 -11 -15 -39 -3
-44 -8 -29 -31 6 -10 13 -11 29 -2 35 19 39 12 5 -10 -27 -17 -32 -25 -27 -47
5 -25 4 -25 -9 -10 -13 17 -15 17 -32 -2 -11 -12 -18 -34 -17 -53 4 -79 10
-109 26 -125 16 -16 19 -15 47 16 33 37 38 77 10 91 -23 13 -36 2 -15 -13 21
-16 7 -48 -20 -44 -17 2 -20 9 -18 33 5 39 28 64 53 58 16 -4 19 0 19 26 0 38
24 98 50 126 19 20 19 21 -12 34 -25 11 -35 11 -50 2 -24 -15 -34 -9 -13 9 13
11 12 16 -6 41 -21 29 -30 34 -42 22z"/>
<path d="M3502 2460 c-7 -11 -21 -20 -32 -20 -11 0 -20 -4 -20 -10 0 -19 27
-10 55 20 16 17 24 30 19 30 -5 0 -15 -9 -22 -20z"/>
<path d="M3564 2464 c3 -9 6 -22 6 -31 0 -10 6 -13 18 -8 14 5 15 4 5 -6 -26
-27 -2 -89 34 -89 14 0 25 43 17 64 -3 9 -2 16 4 16 5 0 12 9 15 21 5 19 4 19
-11 6 -34 -29 -46 -29 -19 0 15 16 24 32 20 36 -3 4 -26 7 -51 7 -36 0 -43 -3
-38 -16z"/>
<path d="M4190 2469 c-13 -8 -12 -11 4 -24 26 -19 47 -2 26 20 -11 10 -19 11
-30 4z"/>
<path d="M2425 2460 c-3 -6 1 -7 9 -4 18 7 21 14 7 14 -6 0 -13 -4 -16 -10z"/>
<path d="M3154 2455 c-19 -15 -19 -15 5 -35 29 -25 39 -19 33 20 -5 34 -10 36
-38 15z"/>
<path d="M3516 2441 c-33 -34 -32 -35 6 -45 33 -8 38 0 30 42 l-7 33 -29 -30z"/>
<path d="M4060 2459 c0 -5 5 -7 10 -4 6 3 10 8 10 11 0 2 -4 4 -10 4 -5 0 -10
-5 -10 -11z"/>
<path d="M3890 2450 c0 -5 5 -10 11 -10 5 0 7 5 4 10 -3 6 -8 10 -11 10 -2 0
-4 -4 -4 -10z"/>
<path d="M4160 2453 c0 -6 7 -16 15 -23 8 -7 15 -23 15 -36 0 -26 10 -30 28
-12 15 15 15 38 0 38 -6 0 -22 10 -35 22 -13 12 -23 17 -23 11z"/>
<path d="M2435 2440 c-3 -5 -12 -7 -20 -4 -19 8 -31 -24 -15 -39 10 -9 14 -9
17 1 3 6 11 12 18 12 7 0 15 9 18 20 5 20 -7 28 -18 10z"/>
<path d="M3120 2432 c0 -6 -6 -12 -14 -12 -11 0 -12 -7 -7 -27 8 -28 6 -35
-18 -80 -10 -21 -9 -23 19 -23 23 0 35 7 50 32 13 22 16 36 9 44 -5 7 -8 16
-7 20 2 5 -5 20 -15 34 -9 13 -17 19 -17 12z"/>
<path d="M3689 2418 c0 -22 -1 -22 -8 -3 -7 16 -10 11 -15 -25 -4 -25 -10 -53
-12 -62 -4 -13 0 -18 14 -18 10 0 22 3 26 8 4 4 20 7 34 7 37 0 41 33 7 65
-14 13 -25 29 -25 37 0 23 -20 14 -21 -9z"/>
<path d="M2750 2417 c0 -23 11 -47 21 -47 15 0 10 37 -6 50 -12 10 -15 10 -15
-3z"/>
<path d="M2943 2423 c-22 -8 -14 -18 17 -20 21 -2 30 2 30 12 0 15 -23 18 -47
8z"/>
<path d="M3811 2416 c-8 -10 -7 -17 3 -26 17 -13 36 -6 36 15 0 19 -27 26 -39
11z"/>
<path d="M4140 2420 c0 -18 20 -50 30 -50 18 0 10 39 -10 50 -14 8 -20 8 -20
0z"/>
<path d="M1730 2396 c0 -29 15 -42 24 -21 3 8 11 15 17 15 8 0 8 -5 -2 -16
-10 -13 -10 -17 2 -25 22 -14 32 -11 26 9 -2 9 -6 24 -8 32 -10 37 -59 42 -59
6z"/>
<path d="M1976 2399 c-34 -27 -26 -38 11 -14 l28 18 -19 -21 c-11 -12 -15 -22
-9 -22 16 0 46 38 38 49 -9 16 -19 14 -49 -10z"/>
<path d="M2184 2408 c-10 -15 24 -38 57 -38 33 0 45 15 29 35 -15 18 -76 20
-86 3z"/>
<path d="M2473 2405 c-41 -18 -30 -26 49 -38 35 -5 56 16 38 38 -14 16 -52 16
-87 0z"/>
<path d="M2305 2382 c-8 -21 -7 -22 19 -22 22 0 59 29 40 31 -5 0 -19 2 -31 3
-12 1 -25 -4 -28 -12z"/>
<path d="M4115 2390 c-3 -5 1 -13 10 -16 22 -9 29 1 11 15 -10 8 -16 9 -21 1z"/>
<path d="M2690 2383 c0 -14 15 -29 27 -28 18 0 28 15 10 15 -9 0 -17 5 -17 10
0 6 -4 10 -10 10 -5 0 -10 -3 -10 -7z"/>
<path d="M2956 2375 c-3 -8 -1 -15 4 -15 6 0 10 7 10 15 0 8 -2 15 -4 15 -2 0
-6 -7 -10 -15z"/>
<path d="M3170 2370 c6 -10 28 -25 50 -31 22 -7 38 -14 36 -17 -3 -2 -18 0
-34 6 -27 9 -33 7 -63 -24 -28 -29 -30 -34 -15 -40 16 -6 141 49 152 67 2 4
-10 12 -26 19 -16 7 -35 18 -41 26 -6 8 -25 14 -41 14 -25 0 -28 -2 -18 -20z"/>
<path d="M3959 2375 c-14 -14 -32 -21 -61 -24 -13 -2 -9 -28 6 -40 12 -10 17
-8 25 7 6 11 7 22 4 26 -3 3 -1 6 5 6 7 0 12 -6 12 -12 1 -7 11 0 24 15 l23
29 -1 -30 c-1 -22 -4 -27 -12 -21 -8 7 -19 1 -34 -18 -20 -26 -20 -28 -4 -32
10 -2 22 3 28 11 6 8 18 17 27 20 13 5 33 57 26 65 -12 12 -55 11 -68 -2z"/>
<path d="M2650 2368 c0 -7 4 -19 9 -26 6 -10 10 -7 13 12 4 18 1 26 -8 26 -8
0 -14 -6 -14 -12z"/>
<path d="M2995 2369 c-4 -6 -4 -13 -1 -16 8 -8 36 5 36 17 0 13 -27 13 -35 -1z"/>
<path d="M3450 2341 c-25 -50 -36 -140 -21 -170 22 -41 33 -12 26 65 -6 69 -5
75 20 109 22 27 24 35 11 35 -8 0 -25 -18 -36 -39z"/>
<path d="M3485 2340 c-24 -34 -26 -43 -20 -96 8 -69 11 -73 30 -53 21 21 24
64 4 63 -12 -1 -15 4 -11 20 9 36 43 75 61 69 13 -4 13 -3 2 5 -7 5 -11 14 -8
19 3 5 -3 9 -13 10 -11 1 -29 -14 -45 -37z"/>
<path d="M4068 2372 c-28 -3 -35 -21 -22 -56 10 -26 24 -18 24 14 0 17 5 30
10 30 12 0 12 -7 1 -47 -10 -35 -3 -47 22 -37 11 4 14 16 10 47 -7 50 -10 54
-45 49z"/>
<path d="M2384 2358 c-6 -7 -8 -28 -5 -47 6 -32 6 -33 23 -14 24 26 28 66 7
71 -9 1 -20 -3 -25 -10z"/>
<path d="M2436 2339 c-3 -16 -24 -48 -46 -70 -22 -22 -40 -41 -40 -43 0 -11
73 3 89 18 23 21 29 52 9 40 -7 -4 -5 2 5 13 21 24 22 46 3 62 -11 9 -15 5
-20 -20z"/>
<path d="M2080 2346 c0 -17 27 -29 35 -16 4 6 3 15 0 20 -9 15 -35 12 -35 -4z"/>
<path d="M4128 2330 c5 -35 9 -36 41 -14 25 18 20 28 -20 37 -24 6 -25 4 -21
-23z"/>
<path d="M1693 2342 c-29 -4 -30 -32 -3 -55 19 -16 23 -16 42 -3 19 14 23 13
34 -2 12 -15 13 -15 14 9 0 19 -8 29 -32 40 -18 8 -43 13 -55 11z"/>
<path d="M1885 2340 c-4 -6 1 -18 11 -25 22 -17 40 -19 48 -6 7 11 -19 33 -28
24 -4 -4 -11 -1 -15 6 -6 10 -10 10 -16 1z"/>
<path d="M1983 2343 c-26 -10 -12 -29 34 -45 40 -14 50 -15 61 -4 11 11 9 17
-14 35 -25 20 -55 25 -81 14z"/>
<path d="M2485 2318 c-5 -21 -3 -34 4 -36 6 -2 11 -9 11 -17 0 -7 7 -18 15
-25 18 -15 74 -20 82 -7 3 6 1 7 -5 3 -8 -5 -12 0 -12 13 0 11 -4 23 -10 26
-5 3 -10 19 -10 36 0 16 -6 29 -12 30 -7 0 -23 2 -35 5 -17 3 -23 -2 -28 -28z"/>
<path d="M2742 2297 c-36 -63 -47 -122 -30 -156 19 -36 35 -36 68 -1 36 39 41
67 9 50 -11 -7 -23 -9 -26 -6 -3 3 2 8 11 12 28 11 17 20 -21 17 -35 -3 -36
-2 -13 8 14 6 38 8 53 5 l28 -6 -19 28 c-11 15 -25 38 -31 52 -10 20 -6 18 17
-9 43 -51 66 -50 91 4 25 53 25 55 8 55 -17 0 -43 -29 -50 -55 -4 -18 -5 -18
-6 2 -1 14 -12 28 -30 38 l-30 15 -29 -53z"/>
<path d="M2326 2331 c-12 -19 -19 -101 -9 -101 26 0 48 49 44 98 -1 14 -27 16
-35 3z"/>
<path d="M3035 2330 c-3 -5 -4 -14 0 -20 8 -13 35 -1 35 16 0 16 -26 19 -35 4z"/>
<path d="M2269 2303 c-7 -19 -7 -28 3 -34 18 -12 28 -1 28 32 0 36 -17 38 -31
2z"/>
<path d="M2600 2314 c0 -11 6 -15 20 -11 11 3 20 0 20 -6 0 -6 3 -7 6 -4 9 9
-15 37 -32 37 -8 0 -14 -7 -14 -16z"/>
<path d="M2888 2290 c-15 -37 -15 -40 0 -40 11 0 13 -3 6 -8 -6 -4 -14 -19
-17 -34 -5 -20 -1 -33 22 -57 16 -17 36 -31 45 -31 23 0 38 45 30 89 -6 33
-52 121 -64 121 -3 0 -13 -18 -22 -40z m52 -65 c-29 -17 -50 -19 -50 -6 0 8
20 14 65 19 6 1 -1 -5 -15 -13z m-29 -42 c13 -15 12 -15 -8 -4 -24 12 -29 21
-14 21 5 0 15 -7 22 -17z"/>
<path d="M2676 2312 c-3 -5 1 -9 9 -9 8 0 12 4 9 9 -3 4 -7 8 -9 8 -2 0 -6 -4
-9 -8z"/>
<path d="M2994 2305 c11 -8 22 -12 25 -9 6 6 -19 24 -34 24 -5 -1 -1 -7 9 -15z"/>
<path d="M3555 2310 c-3 -5 -1 -10 4 -10 6 0 11 5 11 10 0 6 -2 10 -4 10 -3 0
-8 -4 -11 -10z"/>
<path d="M4004 2295 c-24 -27 -21 -35 12 -35 28 0 37 13 29 40 -8 26 -15 25
-41 -5z"/>
<path d="M1797 2303 c-15 -15 -4 -40 34 -78 30 -29 40 -34 36 -20 -15 56 -17
84 -8 90 7 4 11 -5 11 -22 0 -36 10 -73 20 -73 9 0 30 46 30 65 0 29 -101 60
-123 38z"/>
<path d="M2100 2291 c-8 -16 -6 -21 11 -26 25 -8 44 7 36 29 -9 22 -34 20 -47
-3z"/>
<path d="M2950 2302 c0 -4 9 -18 20 -32 17 -22 21 -23 34 -10 13 13 11 17 -20
32 -19 10 -34 14 -34 10z"/>
<path d="M3519 2308 c-9 -37 -7 -47 6 -42 17 7 20 30 5 39 -5 3 -10 5 -11 3z"/>
<path d="M2673 2265 c-33 -25 -39 -34 -27 -39 34 -13 54 -7 54 17 0 13 5 28
12 35 26 26 0 18 -39 -13z"/>
<path d="M3270 2293 c-34 -10 -90 -37 -90 -43 0 -4 7 -14 16 -21 11 -9 14 -23
11 -46 -5 -30 -3 -33 19 -33 21 0 24 4 24 39 0 24 8 48 21 65 23 29 22 45 -1
39z"/>
<path d="M3400 2289 c0 -5 5 -7 10 -4 6 3 10 8 10 11 0 2 -4 4 -10 4 -5 0 -10
-5 -10 -11z"/>
<path d="M3579 2293 c-1 -5 -1 -12 0 -17 1 -4 -2 -13 -7 -20 -10 -12 -26 -70
-20 -72 2 -1 -6 -11 -16 -23 -17 -19 -18 -24 -6 -47 l14 -25 23 38 c18 30 23
53 23 106 0 37 -2 67 -5 67 -3 0 -6 -3 -6 -7z"/>
<path d="M3700 2297 c0 -17 61 -97 74 -97 8 0 18 6 24 13 8 9 2 23 -23 52 -29
33 -36 37 -45 25 -9 -13 -11 -13 -20 0 -5 8 -10 11 -10 7z"/>
<path d="M1988 2284 c6 -3 12 -14 12 -24 0 -21 36 -50 62 -50 10 0 18 5 18 11
0 6 -9 8 -22 3 -21 -6 -21 -5 -9 10 12 15 12 19 0 30 -8 8 -27 16 -44 19 -16
4 -24 4 -17 1z"/>
<path d="M3654 2274 c3 -9 6 -21 6 -27 1 -7 12 -25 25 -42 21 -25 27 -28 35
-15 9 13 13 11 30 -10 11 -14 20 -35 20 -47 0 -34 72 -78 93 -57 11 11 -13 43
-43 59 -36 19 -92 78 -117 123 -18 33 -61 47 -49 16z"/>
<path d="M1730 2269 c0 -5 5 -7 10 -4 6 3 10 8 10 11 0 2 -4 4 -10 4 -5 0 -10
-5 -10 -11z"/>
<path d="M2596 2268 c7 -10 35 -10 51 0 8 5 -1 8 -21 8 -19 0 -32 -4 -30 -8z"/>
<path d="M3600 2223 c0 -34 5 -65 10 -68 6 -3 10 -16 10 -28 -1 -21 -2 -21
-14 -4 -13 16 -14 16 -18 -6 -5 -28 12 -79 19 -58 5 11 7 11 15 0 14 -21 5
182 -10 206 -10 17 -11 10 -12 -42z"/>
<path d="M3631 2264 c0 -11 3 -14 6 -6 3 7 2 16 -1 19 -3 4 -6 -2 -5 -13z"/>
<path d="M1485 2256 c-9 -21 3 -47 26 -55 11 -3 12 -1 2 10 -6 8 -13 25 -15
39 -4 23 -5 23 -13 6z"/>
<path d="M1935 2255 c-3 -8 -7 -22 -9 -29 -4 -10 0 -13 12 -10 12 4 11 0 -5
-14 -13 -11 -23 -23 -23 -27 0 -3 27 -5 59 -4 34 1 66 -3 74 -9 10 -9 16 -9
25 0 18 18 14 26 -17 33 -15 3 -37 14 -47 24 -11 10 -25 16 -32 15 -7 -1 -8 0
-2 3 5 2 10 11 10 19 0 19 -39 18 -45 -1z"/>
<path d="M3392 2258 c-7 -7 -11 -23 -11 -37 l2 -26 4 25 c3 14 10 31 15 38 13
15 6 16 -10 0z"/>
<path d="M1690 2252 c0 -5 9 -21 21 -36 l21 -26 -26 10 c-32 12 -39 1 -25 -39
12 -35 26 -40 36 -13 3 9 12 24 19 32 7 8 14 28 16 44 3 26 0 30 -29 33 -18 2
-33 0 -33 -5z"/>
<path d="M2211 2236 c-29 -30 -14 -40 39 -26 41 11 53 33 24 44 -27 10 -40 7
-63 -18z"/>
<path d="M2440 2233 c-12 -15 -31 -33 -43 -39 -20 -11 -20 -12 11 -28 42 -21
41 -27 -2 -14 -19 6 -42 8 -51 4 -14 -5 -11 -12 19 -40 20 -18 36 -38 36 -45
0 -6 16 -11 35 -11 33 0 46 12 26 24 -5 3 -11 17 -14 31 -3 21 3 32 34 57 37
30 38 32 21 47 -48 43 -49 43 -72 14z"/>
<path d="M3005 2246 c-17 -12 -16 -14 15 -24 27 -10 39 -9 63 3 35 18 40 18
32 5 -3 -5 -1 -10 4 -10 15 0 14 20 -1 24 -43 13 -96 14 -113 2z"/>
<path d="M1775 2235 c-3 -8 -7 -22 -10 -30 -2 -8 -1 -15 3 -15 4 0 24 -4 45
-9 44 -10 46 -3 11 38 -29 34 -42 39 -49 16z"/>
<path d="M2133 2230 c-3 -11 -9 -17 -14 -14 -5 3 -9 -4 -9 -16 0 -11 -12 -32
-27 -45 l-28 -23 30 -12 c17 -7 37 -16 45 -21 8 -5 23 -12 33 -15 9 -4 17 -16
16 -28 -1 -13 -3 -15 -6 -6 -4 16 -72 54 -81 45 -3 -3 0 -5 7 -5 7 0 10 -4 6
-9 -3 -5 5 -17 17 -25 12 -9 17 -16 11 -16 -7 0 -15 5 -18 11 -4 6 -13 8 -21
5 -8 -3 -13 0 -11 6 1 7 -7 13 -18 15 l-20 3 20 -9 c11 -5 14 -10 7 -10 -7 -1
-10 -6 -7 -12 4 -6 13 -8 21 -5 8 3 13 0 11 -7 -1 -7 4 -11 11 -9 7 1 16 -6
19 -15 7 -19 32 -42 47 -43 5 0 6 14 3 30 -4 17 -2 30 3 30 5 0 10 -10 12 -22
4 -31 26 -34 34 -4 10 43 -5 96 -40 134 l-33 36 -37 -22 c-51 -30 -53 -28 -10
13 20 19 41 35 45 35 12 0 11 17 -1 25 -6 4 -8 11 -5 16 4 5 3 9 0 9 -4 0 -9
-9 -12 -20z m56 -129 c0 -14 -1 -14 -6 -1 -3 8 -13 24 -22 35 -16 20 -16 20 7
1 12 -11 22 -26 21 -35z"/>
<path d="M1640 2219 c7 -11 14 -18 17 -15 8 8 -5 36 -17 36 -7 0 -7 -6 0 -21z"/>
<path d="M3645 2195 c2 -22 7 -65 10 -95 3 -30 11 -62 16 -70 9 -12 10 -11 6
6 -2 12 2 32 9 45 l13 24 10 -25 10 -25 0 24 c1 26 -29 92 -60 131 l-19 25 5
-40z"/>
<path d="M2365 2213 c-30 -7 -43 -23 -18 -23 28 0 53 10 53 21 0 9 -3 10 -35
2z"/>
<path d="M2575 2201 c-72 -40 -71 -39 -17 -36 31 1 64 11 84 24 18 11 26 21
18 21 -8 0 -24 2 -35 4 -11 2 -33 -4 -50 -13z"/>
<path d="M3814 2205 c-4 -8 -13 -15 -21 -15 -13 0 -13 -3 -3 -15 13 -16 65
-21 74 -7 6 11 -22 52 -35 52 -5 0 -12 -7 -15 -15z"/>
<path d="M1474 2190 c3 -14 6 -32 6 -40 0 -12 3 -11 17 3 16 16 16 18 -6 40
l-24 22 7 -25z"/>
<path d="M2255 2199 c-22 -6 -50 -7 -62 -4 -34 8 -28 -3 11 -19 26 -11 40 -27
58 -65 26 -59 44 -65 51 -18 5 36 -13 63 -47 70 -21 4 -21 4 0 6 11 0 29 10
39 21 21 23 15 24 -50 9z"/>
<path d="M3181 2201 c-1 -8 -8 -11 -22 -8 -15 4 -19 2 -15 -8 3 -8 0 -16 -7
-19 -7 -2 1 -5 16 -5 28 -1 43 17 34 41 -4 10 -6 10 -6 -1z"/>
<path d="M1630 2193 c0 -5 10 -19 21 -33 l20 -25 -16 33 c-15 30 -25 41 -25
25z"/>
<path d="M3056 2183 c5 -10 9 -48 9 -85 0 -39 5 -72 12 -79 17 -17 30 -2 16
19 -8 14 -7 23 3 37 13 18 14 18 15 -6 1 -13 1 -28 0 -33 -1 -5 4 -13 11 -17
10 -7 10 -9 1 -9 -22 0 -14 -27 12 -44 32 -21 42 -20 50 5 4 12 12 18 21 15
12 -4 34 21 34 38 0 13 -28 5 -34 -9 -3 -8 -9 -14 -13 -13 -4 1 -18 -3 -30
-10 -21 -11 -21 -11 -13 19 8 27 7 30 -8 25 -10 -4 -7 1 7 12 18 15 21 21 11
27 -9 5 -11 4 -6 -3 5 -8 1 -10 -9 -5 -11 4 -13 8 -6 13 14 8 -8 55 -44 94
-28 30 -52 35 -39 9z m64 -57 c0 -11 -19 -15 -25 -6 -3 5 1 10 9 10 9 0 16 -2
16 -4z"/>
<path d="M2804 2154 c-10 -19 -30 -42 -43 -50 -16 -11 -20 -19 -12 -27 7 -7
15 -6 26 3 13 11 18 10 33 -4 10 -9 22 -16 25 -16 10 0 8 118 -2 124 -4 3 -17
-10 -27 -30z"/>
<path d="M2851 2140 c-1 -59 11 -94 22 -66 8 19 33 21 40 4 4 -10 8 -10 15 1
8 11 3 21 -16 40 -15 14 -35 37 -44 51 -17 25 -17 25 -17 -30z"/>
<path d="M1752 2171 c-9 -6 -32 -45 -32 -55 0 -12 31 -5 77 18 30 16 42 27 33
30 -30 9 -69 13 -78 7z"/>
<path d="M3004 2147 c4 -19 3 -26 -4 -22 -5 3 -10 2 -10 -4 0 -5 8 -9 18 -9 9
0 25 -3 35 -7 22 -9 24 23 1 51 -14 18 -15 18 -4 -4 6 -13 9 -28 7 -35 -3 -7
-8 -4 -13 8 -4 11 -15 27 -23 35 -13 13 -14 11 -7 -13z"/>
<path d="M3725 2155 c17 -53 15 -52 26 -32 8 13 7 22 -1 33 -16 18 -31 18 -25
-1z"/>
<path d="M1516 2151 c-3 -5 5 -8 19 -8 14 0 22 3 19 8 -3 5 -11 9 -19 9 -8 0
-16 -4 -19 -9z"/>
<path d="M1936 2153 l-28 -5 33 -34 c18 -19 39 -34 46 -34 12 0 43 49 43 70 0
10 -37 11 -94 3z"/>
<path d="M2310 2150 c0 -5 5 -10 11 -10 5 0 7 5 4 10 -3 6 -8 10 -11 10 -2 0
-4 -4 -4 -10z"/>
<path d="M3315 2150 c3 -5 8 -10 11 -10 2 0 4 5 4 10 0 6 -5 10 -11 10 -5 0
-7 -4 -4 -10z"/>
<path d="M1807 2125 c-78 -39 -100 -65 -54 -65 13 0 28 -5 35 -12 9 -9 12 -9
12 0 0 7 5 12 12 12 9 0 9 -3 0 -12 -7 -7 -12 -23 -12 -36 0 -44 28 -6 41 56
15 70 18 82 16 81 -1 0 -24 -11 -50 -24z"/>
<path d="M1862 2105 c-19 -72 -17 -87 16 -83 23 3 27 7 24 31 -2 16 -9 44 -16
63 l-12 35 -12 -46z"/>
<path d="M3394 2142 c3 -6 2 -13 -3 -17 -6 -3 -7 -13 -4 -22 4 -10 2 -14 -4
-10 -6 4 -14 0 -17 -9 -3 -8 -2 -13 3 -10 5 3 15 -2 22 -11 12 -14 11 -15 -9
-9 -27 9 -30 -9 -3 -24 28 -14 31 -13 31 13 0 13 5 28 11 34 7 7 6 14 -4 24
-7 8 -12 19 -10 26 2 6 -1 15 -8 19 -7 4 -9 3 -5 -4z"/>
<path d="M3495 2139 c-4 -6 -5 -12 -2 -15 2 -3 7 2 10 11 7 17 1 20 -8 4z"/>
<path d="M2510 2129 c0 -6 -7 -9 -15 -5 -20 7 -20 -18 1 -34 12 -11 18 -10 32
4 16 16 16 17 0 10 -21 -7 -24 6 -6 24 9 9 9 12 0 12 -7 0 -12 -5 -12 -11z"/>
<path d="M2647 2133 c-9 -9 -9 -53 1 -53 4 0 15 7 25 14 15 11 15 15 3 19 -8
3 -17 1 -19 -6 -2 -7 -2 -2 0 11 4 23 1 27 -10 15z"/>
<path d="M2670 2130 c0 -5 5 -10 11 -10 5 0 7 5 4 10 -3 6 -8 10 -11 10 -2 0
-4 -4 -4 -10z"/>
<path d="M3235 2130 c-11 -5 -35 -6 -52 -3 -70 11 -13 -50 60 -65 43 -9 46 -8
35 7 -7 9 -20 21 -28 28 -8 6 -11 15 -7 19 4 5 12 2 17 -6 8 -12 10 -10 10 8
0 24 -4 25 -35 12z"/>
<path d="M1510 2120 c0 -5 7 -6 17 -3 10 4 14 2 9 -5 -3 -6 3 -13 15 -17 26
-9 35 0 19 20 -14 17 -60 21 -60 5z"/>
<path d="M1900 2116 c0 -28 28 -86 42 -86 7 0 19 9 25 19 11 17 8 24 -27 51
-31 24 -40 28 -40 16z"/>
<path d="M3438 2103 c2 -13 -1 -29 -7 -37 -7 -8 -8 -22 -3 -36 11 -31 28 -8
37 50 6 41 4 46 -12 46 -15 0 -18 -6 -15 -23z"/>
<path d="M2326 2104 c-11 -27 -7 -39 17 -49 28 -12 36 -62 12 -71 -9 -4 -23 0
-31 8 -14 13 -14 17 1 32 15 15 15 16 -4 16 -30 0 -38 -42 -14 -74 25 -35 67
-42 112 -20 43 22 87 54 75 54 -5 0 2 7 14 16 27 19 31 50 5 38 -10 -4 -35 -9
-55 -12 -37 -4 -48 -15 -28 -27 12 -8 3 -46 -14 -57 -16 -11 -26 -10 -26 2 0
6 7 10 16 10 14 0 14 2 -1 16 -11 11 -14 26 -10 48 10 52 -52 115 -69 70z"/>
<path d="M1660 2091 c0 -24 18 -37 32 -23 8 8 7 16 -2 27 -17 21 -30 19 -30
-4z"/>
<path d="M3487 2103 c-9 -9 -9 -43 1 -43 4 0 15 6 24 14 13 10 15 15 6 24 -14
14 -22 15 -31 5z"/>
<path d="M1615 2090 c3 -5 8 -10 11 -10 2 0 4 5 4 10 0 6 -5 10 -11 10 -5 0
-7 -4 -4 -10z"/>
<path d="M3533 2057 c-34 -41 -41 -74 -22 -108 7 -15 14 -17 23 -10 16 13 14
67 -2 64 -7 -2 -12 4 -12 13 0 10 6 14 15 10 10 -4 15 1 15 14 0 11 4 20 9 20
4 0 6 -24 4 -52 l-4 -53 21 38 c19 34 20 41 7 55 -8 10 -17 24 -18 33 -3 12
-13 5 -36 -24z"/>
<path d="M2240 2084 c0 -13 18 -39 24 -34 2 3 -2 14 -10 24 -8 11 -14 16 -14
10z"/>
<path d="M2936 2071 c-21 -23 -16 -56 13 -92 16 -21 21 -22 36 -9 14 12 15 16
3 24 -8 6 -15 27 -16 46 -3 46 -14 55 -36 31z"/>
<path d="M2712 2024 c-6 -31 -9 -61 -6 -65 11 -18 41 11 54 51 12 37 12 42 -6
55 -10 8 -21 15 -24 15 -3 0 -11 -25 -18 -56z"/>
<path d="M2881 2057 c-11 -29 -2 -99 12 -97 5 1 22 -11 38 -26 16 -15 29 -23
29 -17 0 5 -9 18 -20 28 -11 10 -18 21 -16 24 3 4 -4 31 -14 61 -18 54 -19 55
-29 27z"/>
<path d="M2775 2014 c-24 -70 -43 -88 -80 -74 -32 12 -32 12 -37 -15 -6 -35
44 -32 82 5 26 25 35 29 46 19 19 -15 20 -13 26 42 3 27 0 52 -7 62 -9 13 -14
7 -30 -39z"/>
<path d="M3740 2059 c0 -18 54 -79 71 -79 29 0 10 47 -28 70 -39 23 -43 24
-43 9z"/>
<path d="M1595 2050 c-3 -5 -1 -10 4 -10 6 0 11 -7 11 -15 0 -17 9 -19 29 -6
8 5 11 16 8 25 -7 18 -42 22 -52 6z"/>
<path d="M2030 2003 c0 -46 4 -57 39 -97 21 -25 42 -42 45 -38 4 3 4 0 1 -9
-3 -9 5 -25 20 -39 37 -35 33 0 -5 43 -24 28 -29 40 -24 66 5 23 1 36 -14 53
-12 13 -30 34 -41 48 l-20 25 -1 -52z"/>
<path d="M2833 2010 c0 -25 -6 -64 -12 -86 -7 -28 -8 -55 -2 -80 7 -30 9 -33
10 -14 2 32 28 67 40 54 5 -5 11 -18 14 -29 3 -15 5 -12 6 9 1 28 -28 126 -40
136 -4 3 -9 16 -12 30 -2 14 -4 5 -4 -20z"/>
<path d="M3166 2034 c-4 -9 -4 -19 -1 -22 6 -6 35 18 35 29 0 16 -28 10 -34
-7z"/>
<path d="M2007 2033 c-10 -15 -11 -158 -2 -173 12 -20 20 -66 20 -123 0 -60 7
-70 25 -38 13 24 14 58 4 91 -6 22 -5 23 8 12 14 -11 17 -8 22 23 5 23 3 42
-5 51 -16 20 -29 17 -29 -7 0 -11 4 -18 9 -15 5 4 7 -3 4 -14 -6 -24 -16 -25
-32 -6 -9 10 -9 16 -1 21 6 4 8 14 4 24 -4 9 -10 50 -13 91 -3 44 -9 70 -14
63z"/>
<path d="M3320 2030 c0 -31 70 -65 85 -41 6 10 -34 37 -47 33 -5 -1 -8 3 -8 8
0 6 -7 10 -15 10 -8 0 -15 -4 -15 -10z"/>
<path d="M3596 1987 c-17 -38 -24 -66 -20 -83 9 -35 30 -24 26 14 -2 17 4 47
13 66 9 19 15 41 12 48 -3 7 -17 -13 -31 -45z"/>
<path d="M1971 2003 c-6 -16 -20 -45 -32 -65 -11 -21 -22 -55 -24 -75 -1 -21
0 -27 2 -13 6 33 23 51 23 25 0 -17 2 -18 10 -5 8 12 10 10 10 -10 1 -23 2
-23 9 -5 9 22 23 175 17 175 -2 0 -9 -12 -15 -27z"/>
<path d="M3290 2009 c0 -11 -5 -29 -11 -41 -12 -23 -2 -39 11 -18 8 13 10 12
10 -2 0 -23 28 -23 52 -1 17 16 17 17 -12 34 -16 10 -30 26 -30 34 0 8 -4 15
-10 15 -5 0 -10 -9 -10 -21z"/>
<path d="M1936 1998 c-11 -10 -22 -14 -25 -9 -3 4 -13 -7 -22 -25 -9 -19 -12
-34 -8 -34 16 0 82 66 78 77 -2 6 -13 2 -23 -9z"/>
<path d="M3249 2008 c-1 -7 -1 -22 0 -33 2 -17 0 -17 -8 -5 -9 13 -14 12 -33
-8 -20 -19 -21 -24 -8 -32 21 -13 63 -13 55 0 -4 6 -2 16 3 23 5 7 12 24 16
40 5 20 3 27 -9 27 -8 0 -16 -6 -16 -12z"/>
<path d="M1633 1998 c-27 -13 -28 -21 -8 -38 21 -18 45 -5 45 25 0 27 -4 29
-37 13z"/>
<path d="M1830 1990 c-6 -12 -22 -25 -36 -30 -13 -5 -24 -17 -24 -26 0 -14 2
-14 16 -3 9 7 29 12 45 11 23 -3 31 2 39 23 6 15 8 31 4 36 -9 16 -33 10 -44
-11z"/>
<path d="M3657 1963 c3 -29 0 -59 -7 -72 -13 -25 -4 -44 9 -22 18 28 21 91 7
118 -13 25 -13 24 -9 -24z"/>
<path d="M2250 1976 c0 -17 14 -29 23 -20 8 8 -3 34 -14 34 -5 0 -9 -6 -9 -14z"/>
<path d="M3626 1983 c-9 -10 -7 -93 3 -93 10 0 21 34 21 67 0 23 -13 37 -24
26z"/>
<path d="M3724 1965 c11 -32 50 -84 58 -79 13 8 9 17 -29 59 -21 24 -33 32
-29 20z"/>
<path d="M2487 1963 c-14 -13 -6 -33 12 -33 11 0 23 -4 26 -10 3 -6 -5 -10
-18 -10 -19 0 -24 -4 -20 -18 5 -20 41 -26 60 -10 18 15 17 22 -14 57 -28 32
-35 36 -46 24z"/>
<path d="M2560 1944 c0 -9 7 -14 17 -12 25 5 28 28 4 28 -12 0 -21 -6 -21 -16z"/>
<path d="M2985 1944 c-17 -13 -18 -16 -5 -24 28 -18 52 -12 48 12 -4 27 -18
31 -43 12z"/>
<path d="M3690 1921 c0 -45 23 -111 38 -111 14 0 22 38 15 70 -2 15 -16 40
-29 55 l-24 28 0 -42z"/>
<path d="M2190 1925 c0 -33 20 -75 36 -75 17 0 31 23 16 28 -6 2 -16 19 -22
38 -13 40 -30 45 -30 9z"/>
<path d="M1650 1916 c5 -15 5 -27 -3 -35 -14 -14 11 -15 33 -1 12 7 12 12 0
34 -18 34 -43 36 -30 2z"/>
<path d="M2120 1922 c0 -11 8 -27 19 -36 17 -16 19 -16 25 0 4 10 -1 25 -10
35 -22 24 -34 24 -34 1z"/>
<path d="M2230 1934 c0 -3 6 -18 14 -32 8 -15 19 -40 26 -56 9 -24 13 -27 21
-15 14 22 11 32 -8 25 -10 -3 -5 5 12 19 16 13 31 23 32 21 2 -2 -4 -19 -12
-39 -20 -48 -20 -47 15 -47 29 0 40 13 20 25 -5 3 -10 22 -10 40 0 37 -18 53
-57 49 -13 0 -23 3 -23 7 0 5 -7 9 -15 9 -8 0 -15 -3 -15 -6z m55 -34 c-3 -5
-11 -10 -16 -10 -6 0 -7 5 -4 10 3 6 11 10 16 10 6 0 7 -4 4 -10z"/>
<path d="M2433 1921 c-39 -19 -41 -37 -8 -74 18 -20 31 -26 45 -22 11 4 20 10
20 14 0 15 -29 33 -43 28 -8 -3 -14 4 -15 20 -2 22 0 23 14 9 21 -21 32 -13
26 19 -2 14 -5 24 -6 24 0 -1 -16 -9 -33 -18z"/>
<path d="M2763 1929 c-7 -9 -9 -20 -3 -29 12 -19 22 -7 18 21 -2 19 -5 20 -15
8z"/>
<path d="M2900 1933 c0 -19 11 -43 21 -43 13 0 11 14 -6 36 -8 10 -15 14 -15
7z"/>
<path d="M1874 1916 c-10 -8 -19 -20 -19 -28 0 -7 -10 -14 -21 -16 -29 -4 -61
-39 -47 -53 6 -6 18 -6 34 0 29 11 77 51 61 51 -7 0 -12 5 -12 11 0 6 7 9 15
5 11 -4 15 1 15 19 0 29 0 29 -26 11z"/>
<path d="M1803 1913 c-22 -8 -14 -23 12 -23 18 0 23 4 19 15 -6 16 -11 17 -31
8z"/>
<path d="M2350 1883 c0 -27 16 -47 30 -38 9 5 10 2 5 -14 -5 -17 -2 -21 14
-21 31 0 33 15 6 40 -14 13 -25 29 -25 37 0 7 -7 13 -15 13 -8 0 -15 -8 -15
-17z"/>
<path d="M2716 1879 c-9 -13 -16 -18 -16 -11 0 22 -19 12 -35 -17 -19 -39 -4
-48 37 -24 40 23 56 49 41 64 -8 8 -15 5 -27 -12z"/>
<path d="M2941 1886 c-9 -11 -5 -19 19 -40 55 -46 86 -21 35 29 -28 29 -38 31
-54 11z"/>
<path d="M2759 1849 c-24 -21 -28 -29 -14 -25 19 6 18 5 -2 -11 -29 -23 -42
-73 -19 -73 19 0 42 34 52 75 4 17 11 36 17 43 20 26 0 20 -34 -9z"/>
<path d="M2095 1820 c-4 -6 -3 -24 0 -41 8 -36 38 -37 43 -1 5 36 -27 67 -43
42z"/>
<path d="M2791 1807 c-20 -50 -25 -81 -12 -73 21 13 39 60 31 81 -7 18 -9 18
-19 -8z"/>
<path d="M1862 1788 c-11 -13 -24 -36 -28 -52 -6 -26 -5 -27 13 -17 24 12 53
54 53 76 0 21 -13 19 -38 -7z"/>
<path d="M1965 1780 c-4 -12 -5 -24 -2 -27 3 -2 8 5 12 17 4 12 5 24 2 27 -3
2 -8 -5 -12 -17z"/>
<path d="M1984 1765 c-7 -37 -1 -65 15 -65 12 0 18 35 12 73 -5 38 -19 34 -27
-8z"/>
<path d="M2841 1754 c0 -11 3 -14 6 -6 3 7 2 16 -1 19 -3 4 -6 -2 -5 -13z"/>
<path d="M1912 1711 c-26 -53 -28 -81 -8 -81 23 0 46 41 46 82 0 53 -12 52
-38 -1z"/>
<path d="M2798 1738 c-10 -15 -18 -35 -18 -45 0 -16 2 -15 21 3 12 13 19 31
17 45 l-3 23 -17 -26z"/>
<path d="M2851 1717 c-21 -56 -5 -111 26 -86 17 15 16 57 -2 89 l-13 25 -11
-28z"/>
</g>
</svg>
